<?xml version="1.0" encoding="UTF-8" standalone="no"?>
<!-- Created with Inkscape (http://www.inkscape.org/) -->

<svg
   width="519mm"
   height="182mm"
   viewBox="0 0 519 182"
   version="1.1"
   id="svg5"
   inkscape:version="1.1.1 (3bf5ae0d25, 2021-09-20)"
   sodipodi:docname="logo.svg"
   xmlns:inkscape="http://www.inkscape.org/namespaces/inkscape"
   xmlns:sodipodi="http://sodipodi.sourceforge.net/DTD/sodipodi-0.dtd"
   xmlns="http://www.w3.org/2000/svg"
   xmlns:svg="http://www.w3.org/2000/svg">
  <sodipodi:namedview
     id="namedview7"
     pagecolor="#ffffff"
     bordercolor="#666666"
     borderopacity="1.0"
     inkscape:pageshadow="2"
     inkscape:pageopacity="0.0"
     inkscape:pagecheckerboard="0"
     inkscape:document-units="mm"
     showgrid="false"
     inkscape:zoom="0.13260146"
     inkscape:cx="1089.7316"
     inkscape:cy="531.66834"
     inkscape:window-width="1366"
     inkscape:window-height="715"
     inkscape:window-x="-8"
     inkscape:window-y="-8"
     inkscape:window-maximized="1"
     inkscape:current-layer="layer3" />
  <defs
     id="defs2" />
  <g
     inkscape:groupmode="layer"
     id="layer3"
     inkscape:label="Layer 3"
     style="display:inline">
    <path
       style="fill:#ff5400;fill-opacity:1;stroke:none;stroke-width:1.06674;stroke-opacity:0.792157"
       d="M 10.934119,135.97654 8.5339469,135.01179 V 72.610456 c 0,-60.602601 0.059477,-62.433161 2.0633571,-63.5056053 1.377329,-0.737124 33.209216,-1.1047768 95.740216,-1.1057831 l 93.67686,-0.00151 -0.29508,13.6024864 c -0.37173,17.135999 0.27471,18.712974 7.99063,19.493016 3.02932,0.306248 5.8808,0.929778 6.33665,1.385622 1.10031,1.100316 1.07781,0.213077 1.26893,50.047298 l 0.16665,43.45579 36.53596,0.29516 c 20.09478,0.16234 -25.38849,0.37824 -101.07393,0.47976 -80.042185,0.10738 -138.613986,-0.21899 -140.010071,-0.78015 z"
       id="path5533"
       transform="scale(0.26458333)" />
    <path
       style="fill:#00bbff;fill-opacity:1;stroke:none;stroke-width:1.06674;stroke-opacity:0.792157"
       d="m 9.1435146,679.43932 c -1.504874,-1.50487 -1.6763111,-14.47953 -1.6763111,-126.86626 0,-112.38672 0.1714371,-125.36139 1.6763111,-126.86626 1.5006054,-1.50061 12.3957464,-1.67631 103.9445154,-1.67631 56.24753,0 102.50935,0.39016 102.80407,0.86703 0.29473,0.47687 0.24562,58.32103 -0.10912,128.54257 l -0.64497,127.67555 H 112.97892 c -91.44958,0 -102.334825,-0.17574 -103.8354054,-1.67632 z"
       id="path12624"
       transform="scale(0.26458333)" />
    <path
       style="fill:#ffdd00;fill-opacity:1;stroke:none;stroke-width:1.11078;stroke-opacity:0.792157"
       d="M 8.8862359,408.23496 C 7.4210894,407.30879 7.2200667,391.8942 7.2200667,280.47182 c 0,-111.42238 0.2010227,-126.83697 1.6661692,-127.76315 1.0186846,-0.64395 41.7022971,-1.05986 104.6909641,-1.07026 l 103.0248,-0.017 v 45.35849 c 0,24.94717 -0.33213,82.92985 -0.73808,128.85042 l -0.73807,83.49193 -102.28672,-0.017 C 50.315637,409.29484 9.9046937,408.87877 8.8862359,408.23496 Z"
       id="path16369"
       transform="scale(0.26458333)" />
  </g>
  <g
     inkscape:groupmode="layer"
     id="layer2"
     inkscape:label="Layer 2">
    <path
       style="fill:#000000;fill-opacity:0.792157;stroke:#000000;stroke-width:1.06674;stroke-opacity:0.792157"
       d="m 215.48216,89.819791 c 0,-34.503221 -0.32388,-46.51387 -1.28009,-47.47008 -0.70405,-0.70405 -3.55704,-1.280092 -6.33997,-1.280092 -7.60841,0 -8.38109,-1.683253 -8.38109,-18.257864 0,-11.340925 0.27156,-13.6203841 1.68736,-14.1636785 0.92805,-0.3561257 29.01007,-0.6475013 62.40449,-0.6475013 59.2948,0 60.7671,0.049978 62.85061,2.1334868 1.88275,1.882747 2.13349,3.555811 2.13349,14.235703 0,13.838759 -0.90538,15.633111 -7.88802,15.633111 -2.19253,0 -4.91493,0.496924 -6.04978,1.104276 -1.99007,1.065052 -2.06336,2.707374 -2.06336,46.238004 0,42.370064 -0.11945,45.241824 -1.95079,46.899174 -1.75255,1.58603 -6.68502,1.76545 -48.53683,1.76545 h -46.58602 z"
       id="path191"
       transform="scale(0.26458333)" />
    <path
       style="fill:#000000;fill-opacity:0.792157;stroke:#000000;stroke-width:1.06674;stroke-opacity:0.792157"
       d="m 345.8382,134.72969 c -0.96581,-0.96581 -1.28009,-16.27218 -1.28009,-62.344001 V 11.321782 l 2.37084,-1.6606031 c 2.03049,-1.4222117 7.46692,-1.6606037 37.86939,-1.6606037 43.36749,0 39.76552,-1.5266903 39.76552,16.8545448 0,8.368009 0.42911,13.01668 1.28009,13.867664 0.70405,0.704051 3.80739,1.280092 6.8963,1.280092 7.34616,0 7.82476,-1.003341 7.82476,-16.403905 0,-15.6431504 -0.0466,-15.5983958 16.23851,-15.5983958 17.52478,0 15.76379,-7.19114453 15.76379,64.3726408 0,56.874634 -0.10486,60.200574 -1.9508,61.871114 -1.58655,1.43581 -4.33518,1.76545 -14.72106,1.76545 -8.5101,0 -13.1973,-0.42704 -14.05035,-1.28009 -0.85509,-0.85509 -1.28009,-5.58144 -1.28009,-14.2357 0,-14.77919 -0.81688,-16.48651 -7.88802,-16.48651 -7.80577,0 -8.11313,0.58115 -8.11313,15.33998 0,11.36676 -0.26216,13.36867 -1.9508,14.89687 -1.73582,1.5709 -6.00305,1.76545 -38.72278,1.76545 -27.17811,0 -37.10597,-0.33398 -38.05208,-1.28009 z"
       id="path230"
       transform="scale(0.26458333)" />
    <path
       style="fill:#000000;fill-opacity:0.792157;stroke:#000000;stroke-width:1.06674;stroke-opacity:0.792157"
       d="m 489.84855,134.72969 c -0.96581,-0.96581 -1.28009,-16.27218 -1.28009,-62.344001 V 11.321782 l 2.37084,-1.6606031 c 2.07701,-1.4547911 9.74522,-1.6606037 61.87112,-1.6606037 70.8644,0 63.76724,-1.7544774 63.76724,15.7637938 0,13.945441 -1.0729,16.238507 -7.59782,16.238507 -6.96889,0 -8.40333,1.335675 -8.40333,7.824759 0,3.088914 0.57604,6.192249 1.28009,6.896299 0.70406,0.704051 3.34424,1.280092 5.86709,1.280092 7.69143,0 8.85397,2.069832 8.85397,15.763794 0,13.945441 -1.0729,16.238507 -7.59782,16.238507 -6.96889,0 -8.40333,1.335675 -8.40333,7.824759 0,3.088914 0.57604,6.192254 1.28009,6.896304 0.70406,0.70405 3.34424,1.28009 5.86709,1.28009 7.69143,0 8.85397,2.06983 8.85397,15.76379 0,8.67903 -0.407,12.0779 -1.6606,13.86766 l -1.66061,2.37085 h -61.0639 c -46.07182,0 -61.37819,-0.31429 -62.344,-1.28009 z"
       id="path269"
       transform="scale(0.26458333)" />
    <path
       style="fill:#000000;fill-opacity:0.792157;stroke:#000000;stroke-width:1.06674;stroke-opacity:0.792157"
       d="m 216.5489,280.28689 0.53337,-127.74259 125.60465,-0.27107 c 124.45127,-0.26859 125.62426,-0.25145 127.74252,1.8668 2.11483,2.11483 2.13787,3.47527 2.13787,126.24814 0,118.88126 -0.0823,124.18465 -1.9508,125.87572 -1.72464,1.56079 -5.68798,1.76545 -34.18876,1.76545 -26.34227,0 -32.76477,-0.28671 -35.11853,-1.56774 -1.58432,-0.86226 -14.62095,-13.36015 -28.9703,-27.7731 l -26.08974,-26.20536 -26.71406,26.59367 c -14.69274,14.62651 -27.76259,27.12442 -29.04411,27.7731 -1.56508,0.79221 -14.17289,1.17945 -38.40276,1.1795 l -36.07272,8e-5 z"
       id="path308"
       transform="scale(0.26458333)" />
    <path
       style="fill:#000000;fill-opacity:0.792157;stroke:#000000;stroke-width:1.06674;stroke-opacity:0.792157"
       d="M 519.27801,392.78756 504.03624,377.54579 V 266.91184 c 0,-109.21161 0.0274,-110.66137 2.13348,-112.76742 2.10575,-2.10575 3.55582,-2.13349 111.52766,-2.13349 92.32805,0 109.84356,0.23583 112.27474,1.51166 1.58432,0.83142 9.00101,7.71316 16.48155,15.29277 l 13.60097,13.78109 v 110.65309 c 0,74.23598 -0.36342,111.33216 -1.10427,112.71644 -1.08097,2.0198 -3.46111,2.06336 -112.76743,2.06336 H 534.51979 Z"
       id="path347"
       transform="scale(0.26458333)" />
    <path
       style="fill:#000000;fill-opacity:0.792157;stroke:#000000;stroke-width:1.06674;stroke-opacity:0.792157"
       d="m 793.73326,406.35302 c -1.50473,-1.50471 -1.67631,-14.38949 -1.67631,-125.87571 0,-122.77708 0.0244,-124.22384 2.13348,-126.33289 2.101,-2.101 3.55581,-2.13349 95.52651,-2.13349 78.64454,0 93.84791,0.23937 96.27359,1.5158 1.58431,0.83369 16.20157,14.91064 32.48267,31.28211 l 29.6022,29.76632 v 32.79262 c 0,21.9556 -0.3921,33.56263 -1.1863,35.12265 -0.6524,1.28152 -14.0934,15.31109 -29.8688,31.1768 -17.53224,17.63261 -28.68258,29.64201 -28.68258,30.8924 0,1.25486 11.54615,13.6179 29.86878,31.98204 16.4279,16.46503 29.8689,30.28545 29.8689,30.71204 0,0.4266 -56.84985,0.77563 -126.33294,0.77563 -113.42576,0 -126.50416,-0.17127 -128.0092,-1.67632 z"
       id="path386"
       transform="scale(0.26458333)" />
    <path
       style="fill:#000000;fill-opacity:0.792157;stroke:#000000;stroke-width:1.06674;stroke-opacity:0.792157"
       d="m 1081.754,406.35302 c -1.5048,-1.50471 -1.6763,-14.38949 -1.6763,-125.87571 0,-122.77708 0.024,-124.22384 2.1334,-126.33289 2.1058,-2.10575 3.5559,-2.13349 111.5277,-2.13349 91.8735,0 109.8555,0.24004 112.2747,1.49876 1.5844,0.82433 9.001,7.73885 16.4816,15.36561 l 13.601,13.86683 v 96.71259 c 0,68.69159 -0.3428,97.38767 -1.1829,99.04262 -1.6962,3.34139 -24.4033,26.18992 -27.8329,28.00636 -2.4444,1.29463 -19.5945,1.52564 -113.2653,1.52564 -98.9274,0 -110.5587,-0.174 -112.061,-1.67632 z"
       id="path425"
       transform="scale(0.26458333)" />
    <path
       style="fill:#000000;fill-opacity:0.792157;stroke:#000000;stroke-width:1.06674;stroke-opacity:0.792157"
       d="m 1375.3816,400.74605 -7.2832,-7.28328 v -54.58783 c 0,-53.16551 0.056,-54.64342 2.1334,-56.72132 2.0767,-2.07665 3.5559,-2.13349 55.5237,-2.13349 44.5584,0 53.885,0.25592 56.3819,1.5471 1.6455,0.85091 5.4619,4.24984 8.481,7.55317 l 5.4892,6.00607 v 54.77512 c 0,48.37324 -0.196,54.97104 -1.6763,56.45143 -1.4807,1.48061 -8.1028,1.67632 -56.7214,1.67632 h -55.045 z"
       id="path464"
       transform="scale(0.26458333)" />
    <path
       style="fill:#000000;fill-opacity:0.792157;stroke:#000000;stroke-width:1.06674;stroke-opacity:0.792157"
       d="m 1513.785,406.35302 c -1.4843,-1.48431 -1.6763,-8.57089 -1.6763,-61.87111 0,-58.77248 0.05,-60.24522 2.1335,-62.32829 2.0825,-2.08249 3.5558,-2.13349 61.6338,-2.13349 52.1259,0 59.7941,0.20581 61.8711,1.66061 2.2236,1.55745 2.3708,2.44725 2.3708,14.32483 0,14.73434 -0.6406,16.01686 -8.0006,16.01686 -6.1156,0 -8.0005,1.97829 -8.0005,8.3968 0,6.17562 1.2982,7.60435 6.9098,7.60435 2.3923,0 5.4165,0.74728 6.7205,1.66061 2.2236,1.55745 2.3708,2.44725 2.3708,14.32484 0,14.73433 -0.6406,16.01685 -8.0006,16.01685 -7.857,0 -8.0005,0.43058 -8.0005,24.00173 0,17.34959 -0.2679,20.91696 -1.6763,22.32541 -1.4787,1.47864 -7.8852,1.67632 -54.3278,1.67632 -46.4425,0 -52.849,-0.19768 -54.3277,-1.67632 z"
       id="path503"
       transform="scale(0.26458333)" />
    <path
       style="fill:#000000;fill-opacity:0.792157;stroke:#000000;stroke-width:1.06674;stroke-opacity:0.792157"
       d="m 1817.8069,678.37258 c -1.5048,-1.50479 -1.6763,-14.43248 -1.6763,-126.34859 v -124.6723 l 2.3708,-1.6606 c 2.0767,-1.4546 9.7227,-1.6606 61.6338,-1.6606 51.911,0 59.557,0.206 61.6337,1.6606 l 2.3709,1.6606 v 124.6723 c 0,111.91611 -0.1715,124.8438 -1.6763,126.34859 -1.4846,1.48461 -8.6125,1.67631 -62.3283,1.67631 -53.7159,0 -60.8437,-0.1917 -62.3283,-1.67631 z"
       id="path542"
       transform="scale(0.26458333)" />
    <path
       style="fill:#000000;fill-opacity:0.792157;stroke:#000000;stroke-width:1.06674;stroke-opacity:0.792157"
       d="m 1529.7862,678.37258 c -1.5048,-1.50479 -1.6763,-14.43248 -1.6763,-126.34859 v -124.6723 l 2.3708,-1.6606 c 2.0914,-1.46488 11.2416,-1.6606 77.6349,-1.6606 66.3934,0 75.5435,0.19572 77.6349,1.6606 2.3513,1.64692 2.3709,1.90005 2.3709,30.72221 0,21.18114 0.3471,29.40872 1.2801,30.3417 1.7736,1.7736 27.6685,1.7736 29.4421,0 0.933,-0.93298 1.2801,-9.16056 1.2801,-30.3417 0,-28.82216 0.019,-29.07529 2.3708,-30.72221 3.5305,-2.47285 55.7325,-2.47285 59.2629,0 l 2.3709,1.6606 v 124.6723 c 0,111.91611 -0.1715,124.8438 -1.6763,126.34859 -2.5178,2.51781 -58.1342,2.51781 -60.652,0 -1.4407,-1.4407 -1.6763,-5.70315 -1.6763,-30.32599 0,-24.62283 -0.2356,-28.88529 -1.6763,-30.32599 -1.3355,-1.33542 -4.2485,-1.67631 -14.3249,-1.67631 -10.0763,0 -12.9894,0.34089 -14.3248,1.67631 -1.4407,1.4407 -1.6763,5.70316 -1.6763,30.32599 0,24.62284 -0.2356,28.88529 -1.6763,30.32599 -1.4929,1.49281 -10.0671,1.67631 -78.3295,1.67631 -68.2623,0 -76.8366,-0.1835 -78.3294,-1.67631 z"
       id="path581"
       transform="scale(0.26458333)" />
    <path
       style="fill:#000000;fill-opacity:0.792157;stroke:#000000;stroke-width:1.06674;stroke-opacity:0.792157"
       d="m 1255.3309,664.80711 -15.2417,-15.24176 v -96.28589 c 0,-81.45318 0.235,-96.72963 1.5259,-99.16645 1.8181,-3.43221 25.7329,-27.20481 29.0728,-28.89993 1.6605,-0.84275 33.7036,-1.18259 111.504,-1.18259 97.0845,0 109.4365,0.18388 111.5448,1.6606 2.35,1.64597 2.3709,1.91327 2.3709,30.32599 0,24.63712 -0.2356,28.90095 -1.6763,30.3417 -1.3355,1.33542 -4.2485,1.67631 -14.3249,1.67631 -10.0763,0 -12.9894,0.34089 -14.3248,1.67631 -1.4849,1.48486 -1.6763,8.64847 -1.6763,62.72451 0,46.05961 0.3142,61.36248 1.2801,62.32829 0.8482,0.8482 5.4469,1.28009 13.6303,1.28009 18.5328,0 17.0919,-2.69654 17.0919,31.9866 0,24.63711 -0.2356,28.90095 -1.6763,30.34169 -1.5025,1.50246 -13.1979,1.67631 -112.7675,1.67631 h -111.0911 z"
       id="path620"
       transform="scale(0.26458333)" />
    <path
       style="fill:#000000;fill-opacity:0.792157;stroke:#000000;stroke-width:1.06674;stroke-opacity:0.792157"
       d="m 1081.754,678.37258 c -1.5048,-1.50472 -1.6763,-14.38949 -1.6763,-125.87572 0,-122.77708 0.024,-124.22383 2.1334,-126.33289 2.0825,-2.08248 3.5559,-2.13348 61.6338,-2.13348 52.1259,0 59.7941,0.20581 61.8711,1.6606 l 2.3709,1.6606 v 124.6723 c 0,111.91611 -0.1716,124.8438 -1.6764,126.34859 -1.4846,1.48461 -8.6124,1.67631 -62.3282,1.67631 -53.7159,0 -60.8437,-0.1917 -62.3283,-1.67631 z"
       id="path659"
       transform="scale(0.26458333)" />
    <path
       style="fill:#000000;fill-opacity:0.792157;stroke:#000000;stroke-width:1.06674;stroke-opacity:0.792157"
       d="m 793.73326,678.37258 c -1.50473,-1.50472 -1.67631,-14.38949 -1.67631,-125.87572 0,-122.77708 0.0244,-124.22383 2.13348,-126.33289 2.0815,-2.08149 3.55581,-2.13348 60.4997,-2.13348 h 58.36621 l 34.19534,34.13578 c 18.80743,18.77469 34.78568,34.13579 35.5072,34.13579 1.00884,0 1.31187,-7.39211 1.31187,-32.0023 0,-30.57998 0.0948,-32.09712 2.13349,-34.13579 2.02313,-2.02313 3.55581,-2.13348 29.63146,-2.13348 23.1613,0 27.8719,0.26189 29.8688,1.6606 l 2.3709,1.6606 v 124.6723 c 0,111.91611 -0.1716,124.8438 -1.6764,126.34859 -1.4843,1.48434 -8.5757,1.67631 -61.92405,1.67631 -50.27128,0 -60.72477,-0.25331 -63.12835,-1.52973 -1.58431,-0.84135 -16.53128,-15.21526 -33.21548,-31.94202 -16.6842,-16.72675 -30.7252,-30.17106 -31.20224,-29.87624 -0.47703,0.29483 -0.86733,13.74022 -0.86733,29.87866 0,18.18662 -0.41984,30.1271 -1.10428,31.40597 -1.05051,1.9629 -2.5271,2.06336 -30.32599,2.06336 -25.14287,0 -29.4557,-0.23398 -30.89802,-1.67631 z"
       id="path698"
       transform="scale(0.26458333)" />
    <path
       style="fill:#000000;fill-opacity:0.792157;stroke:#000000;stroke-width:1.06674;stroke-opacity:0.792157"
       d="m 216.2779,552.30638 0.271,-127.74252 110.94131,-0.27811 c 77.24181,-0.19363 111.78727,0.07 113.72626,0.86792 1.53172,0.63032 9.09227,7.51576 16.80121,15.30098 l 14.01626,14.15494 v 32.78403 c 0,22.12663 -0.38889,33.54147 -1.1963,35.11407 -0.65796,1.28152 -6.89841,8.13327 -13.86767,15.22609 -6.96924,7.09283 -12.67136,13.75781 -12.67136,14.81107 0,1.05324 6.24045,8.26647 13.86766,16.02936 l 13.86767,14.11436 v 32.74914 c 0,21.86371 -0.39316,33.52361 -1.18285,35.07918 -1.69626,3.34139 -24.4033,26.18993 -27.83293,28.00637 -2.44522,1.29506 -19.81765,1.52563 -114.94592,1.52563 H 216.00689 Z"
       id="path737"
       transform="scale(0.26458333)" />
    <path
       style="fill:#000000;fill-opacity:1;stroke:none;stroke-width:1.38062;stroke-opacity:0.792157"
       d="m 215.36814,100.43996 c -0.005,-19.553001 -0.40728,-40.676457 -0.89494,-46.941012 L 213.58653,42.10885 h -4.36365 c -8.04341,0 -9.66562,-2.508919 -10.21153,-15.793174 -0.26837,-6.530671 -0.0966,-13.433025 0.38161,-15.338566 l 0.86957,-3.4646199 62.83273,0.3856091 c 54.0628,0.3317872 63.01536,0.6746604 64.14114,2.4565358 0.71963,1.13901 1.31792,7.462734 1.32955,14.052719 0.0234,13.274458 -1.46289,16.304556 -8.01603,16.342019 -2.03395,0.0116 -4.43485,0.489634 -5.33534,1.062237 -1.19325,0.758761 -1.75486,13.30978 -2.07093,46.281254 -0.36797,38.386306 -0.74741,45.438286 -2.50459,46.547946 -1.19626,0.75543 -21.75096,1.31671 -48.66679,1.32892 l -46.59586,0.0212 -0.008,-35.55092 z"
       id="path16523"
       transform="scale(0.26458333)" />
    <path
       style="fill:#000000;fill-opacity:1;stroke:none;stroke-width:1.38062;stroke-opacity:0.792157"
       d="m 345.58114,134.2651 c -0.61432,-0.94917 -1.30731,-29.12743 -1.53999,-62.618356 l -0.42305,-60.892585 3.98182,-1.6493219 c 5.77738,-2.3930729 72.64262,-1.532407 75.14779,0.9672759 1.11018,1.107748 2.05506,6.887766 2.48264,15.186799 l 0.69031,13.398393 5.87154,0.424728 c 5.24493,0.3794 6.01847,0.03828 7.24825,-3.196268 0.75719,-1.991548 1.3767,-8.195761 1.3767,-13.787139 0,-13.7244117 0.89452,-14.5052269 16.61746,-14.5052269 11.28698,0 12.42163,0.2508187 14.05272,3.1063909 1.37021,2.398866 1.77434,16.717997 1.77434,62.868283 0,51.607887 -0.28256,59.944057 -2.07092,61.097017 -1.13901,0.73431 -8.28371,1.1777 -15.87711,0.9853 l -13.80618,-0.34982 -0.69031,-13.24923 c -0.75722,-14.5335 -2.26323,-17.81468 -8.17663,-17.81468 -5.93453,0 -7.01017,2.28063 -7.01017,14.86338 0,18.31169 3.42328,16.89084 -40.69533,16.89084 -28.75343,0 -38.10508,-0.41431 -38.95388,-1.72578 z"
       id="path16562"
       transform="scale(0.26458333)" />
    <path
       style="fill:#000000;fill-opacity:1;stroke:none;stroke-width:1.38062;stroke-opacity:0.792157"
       d="m 489.41781,134.592 c -0.47551,-0.76938 -1.22944,-28.57158 -1.67542,-61.782658 -0.76714,-57.128802 -0.67626,-60.495413 1.68609,-62.454707 3.56858,-2.959733 121.87157,-3.1258382 125.4251,-0.176105 1.78165,1.478928 2.28268,4.36606 2.28268,13.153829 0,13.645505 -1.94111,17.395873 -9.00373,17.395873 -5.63413,0 -7.93968,3.297346 -6.68656,9.562958 0.72838,3.641906 1.60832,4.387261 6.01048,5.091195 8.55393,1.367828 8.94369,2.007438 9.46708,15.535794 0.42762,11.052911 0.17485,12.64709 -2.41608,15.238021 -1.63647,1.63647 -4.67205,2.893663 -6.98694,2.893663 -4.94517,0 -7.27201,3.575603 -6.10947,9.388295 0.70927,3.546372 1.55821,4.191102 6.36804,4.836232 3.05231,0.4094 6.24769,1.44239 7.10083,2.29553 2.09045,2.09045 2.85205,21.87688 1.0248,26.62426 l -1.46135,3.7967 h -62.0805 c -40.43793,0 -62.3819,-0.48768 -62.94505,-1.39888 z"
       id="path16601"
       transform="scale(0.26458333)" />
    <path
       style="fill:#000000;fill-opacity:1;stroke:none;stroke-width:1.38062;stroke-opacity:0.792157"
       d="m 215.94206,280.63442 c 0.5486,-70.03601 1.22384,-127.56458 1.50052,-127.84127 1.0419,-1.0419 224.31146,-1.96981 238.51369,-0.99126 14.52995,1.00112 14.87088,1.10176 15.87711,4.68645 0.56557,2.01484 1.02829,58.39578 1.02829,125.29097 0,101.06008 -0.32041,122.01365 -1.89481,123.91046 -1.66822,2.00983 -5.94431,2.28286 -35.75365,2.28286 h -33.85882 l -27.33573,-27.11861 -27.33572,-27.1186 -28.03142,27.08984 -28.03143,27.08985 -37.83774,0.0288 -37.83774,0.0288 z"
       id="path16640"
       transform="scale(0.26458333)" />
    <path
       style="fill:#000000;fill-opacity:1;stroke:none;stroke-width:1.38062;stroke-opacity:0.792157"
       d="m 518.74368,393.10844 -14.8181,-14.86419 V 267.73607 c 0,-93.2415 0.30608,-110.92691 1.95892,-113.18813 1.89969,-2.59893 4.76935,-2.69373 94.91748,-3.13548 51.12722,-0.25054 101.30581,-0.0254 111.50797,0.50031 l 18.54937,0.95584 14.99109,14.61893 14.99106,14.61893 -0.40562,111.20731 c -0.2231,61.16401 -0.90825,111.9839 -1.52257,112.93307 -0.87845,1.35729 -25.05651,1.72578 -113.23422,1.72578 H 533.56178 Z"
       id="path16679"
       transform="scale(0.26458333)" />
    <path
       style="fill:#000000;fill-opacity:1;stroke:none;stroke-width:1.38062;stroke-opacity:0.792157"
       d="M 215.37641,552.47092 V 424.98745 l 48.66679,-0.91189 c 61.92097,-1.16024 134.50628,-1.17248 159.24309,-0.0268 l 19.20179,0.88929 14.84164,14.56312 14.84164,14.56313 v 34.17877 34.17877 l -11.39009,12.1552 c -6.26456,6.68536 -12.53861,13.5127 -13.94234,15.17188 -2.54384,3.00675 -2.50636,3.06493 11.3901,17.67684 l 13.94233,14.66016 v 33.62348 33.62347 l -5.36531,6.68192 c -5.98349,7.45176 -16.99477,18.19399 -22.20909,21.66639 -3.0997,2.06422 -13.7951,2.27325 -116.31707,2.27325 H 215.37641 Z"
       id="path16718"
       transform="scale(0.26458333)" />
    <path
       style="fill:#000000;fill-opacity:1;stroke:none;stroke-width:2.29346;stroke-opacity:0.792157"
       d="m 800.41625,407.35995 -8.0271,-1.41819 -0.63473,-121.55318 c -0.34909,-66.85425 -0.11219,-123.71284 0.52645,-126.35242 1.11587,-4.61201 3.00501,-4.86053 48.42325,-6.37001 25.99415,-0.86392 69.6196,-0.863 96.94545,0.002 l 49.68337,1.5728 30.38826,29.84817 30.3883,29.84817 v 34.65618 34.65619 l -29.9541,31.40379 -29.9542,31.4038 29.9486,30.66345 29.9486,30.66345 -27.876,1.49887 c -34.30682,1.84467 -208.75407,1.42949 -219.80615,-0.52311 z"
       id="path16796"
       transform="scale(0.26458333)" />
    <path
       style="fill:#000000;fill-opacity:1;stroke:none;stroke-width:2.29346;stroke-opacity:0.792157"
       d="m 792.63452,676.38203 c -0.76565,-1.99527 -1.3921,-58.5519 -1.3921,-125.6814 0,-91.87267 0.68054,-122.73419 2.75215,-124.8058 1.99701,-1.99701 18.83842,-2.75214 61.37962,-2.75214 h 58.62748 l 33.19578,33.25511 c 18.25768,18.29032 33.98318,33.25512 34.94554,33.25512 0.96237,0 1.74976,-13.72634 1.74976,-30.50297 0,-20.66659 0.88749,-31.39046 2.75215,-33.25512 3.1428,-3.1428 53.8477,-3.8775 58.6176,-0.84935 2.2745,1.44394 2.7608,28.55055 2.2935,127.82507 l -0.5932,125.99251 -62.84846,0.61087 -62.84846,0.61086 -31.75661,-31.46676 -31.75662,-31.46676 -0.0163,15.94843 c -0.009,8.77164 -0.67425,22.91481 -1.47839,31.42926 l -1.46207,15.48083 h -30.38464 c -25.59113,0 -30.60426,-0.57231 -31.77675,-3.62776 z"
       id="path16835"
       transform="scale(0.26458333)" />
    <path
       style="fill:#000000;fill-opacity:1;stroke:none;stroke-width:2.29346;stroke-opacity:0.792157"
       d="m 1087.6716,407.79414 -7.4537,-0.99627 V 280.93844 c 0,-96.84646 0.6477,-126.25971 2.8096,-127.59586 1.5453,-0.95503 52.1656,-1.71309 112.4896,-1.68457 l 109.68,0.0519 16.011,15.88332 16.0109,15.88331 -0.6403,98.02421 -0.6404,98.0242 -14.3548,14.35515 -14.3548,14.35516 -106.0517,0.2776 c -58.3284,0.15268 -109.4058,-0.17072 -113.5054,-0.71868 z"
       id="path16874"
       transform="scale(0.26458333)" />
    <path
       style="fill:#000000;fill-opacity:1;stroke:none;stroke-width:2.29346;stroke-opacity:0.792157"
       d="m 1081.783,678.51691 c -0.8608,-0.86078 -1.5651,-58.04567 -1.5651,-127.07754 0,-112.33527 0.3809,-125.65863 3.6278,-126.90458 5.4312,-2.08414 118.618,-1.61018 121.9587,0.51069 2.2745,1.44394 2.7609,28.55055 2.2935,127.82507 l -0.5932,125.99251 -62.0783,0.60947 c -34.1431,0.33521 -62.7826,-0.0948 -63.6434,-0.95562 z"
       id="path16913"
       transform="scale(0.26458333)" />
    <path
       style="fill:#000000;fill-opacity:1;stroke:none;stroke-width:1.2487;stroke-opacity:0.792157"
       d="m 1255.5552,666.11776 -15.6367,-15.45879 0.3342,-98.25002 0.3341,-98.25003 7.4922,-7.86847 c 4.1207,-4.32766 10.99,-11.12809 15.2651,-15.11207 l 7.7729,-7.24359 h 110.3031 c 93.3144,0 110.6764,0.2731 112.727,1.77315 2.279,1.66716 2.4227,3.49312 2.4043,30.55042 -0.015,21.71636 -0.4124,29.17077 -1.6204,30.38097 -1.0378,1.03966 -6.2176,1.75421 -14.7276,2.03168 -12.6381,0.41206 -13.1705,0.54293 -14.3006,3.51522 -1.2595,3.31286 -1.6477,115.28713 -0.4156,119.88029 0.6741,2.51272 1.6293,2.72847 13.8214,3.12175 15.707,0.50666 16.049,0.79414 17.3445,14.57703 1.2935,13.76116 -0.2922,46.52849 -2.3513,48.58758 -1.3156,1.31554 -23.4722,1.79488 -112.3742,2.43116 l -110.7356,0.79252 z"
       id="path17186"
       transform="scale(0.26458333)" />
    <path
       style="fill:#000000;fill-opacity:1;stroke:none;stroke-width:1.2487;stroke-opacity:0.792157"
       d="m 1375.0363,401.04955 -7.8306,-7.90081 0.3744,-54.49105 c 0.3438,-50.03405 0.554,-54.67055 2.5702,-56.68553 1.9716,-1.97044 5.9612,-2.24494 39.0797,-2.68879 20.2862,-0.27187 45.1146,-0.0829 55.1743,0.42001 l 18.2902,0.91433 7.4305,7.43052 7.4305,7.43051 -0.6758,53.92623 c -0.3718,29.65942 -1.0433,54.82746 -1.4924,55.92898 -1.1721,2.87501 -15.12,3.6164 -68.0351,3.6164 h -44.4854 z"
       id="path17225"
       transform="scale(0.26458333)" />
    <path
       style="fill:#000000;fill-opacity:1;stroke:none;stroke-width:1.2487;stroke-opacity:0.792157"
       d="m 1520.948,408.0858 c -3.7624,-0.29393 -7.2658,-1.20301 -7.7853,-2.02016 -0.5196,-0.81717 -0.9533,-28.49082 -0.9638,-61.49702 -0.016,-49.68877 0.2837,-60.4254 1.7413,-62.41884 1.669,-2.28251 4.0442,-2.43205 45.7245,-2.87882 52.4325,-0.56201 76.575,0.43095 79.4101,3.26607 1.5606,1.56055 1.8597,4.38107 1.52,14.33236 -0.4736,13.87415 -1.6818,15.9308 -9.3586,15.9308 -4.6468,0 -6.6731,2.61594 -6.6731,8.6149 0,4.18806 2.7517,6.36954 8.0345,6.36954 6.2615,0 8.1986,3.76979 8.1986,15.9553 0,12.98698 -1.6738,16.50037 -7.8752,16.53011 -7.5539,0.0362 -7.6745,0.37691 -8.3579,23.60073 -0.4425,15.03759 -1.0972,21.68952 -2.2476,22.83664 -1.2657,1.26207 -11.855,1.65099 -48.0751,1.76571 -25.5485,0.0809 -49.5301,-0.0934 -53.2924,-0.38732 z"
       id="path17264"
       transform="scale(0.26458333)" />
    <path
       style="fill:#000000;fill-opacity:1;stroke:none;stroke-width:1.2487;stroke-opacity:0.792157"
       d="m 1555.673,680.04975 c -14.1954,-0.41532 -26.2766,-1.22323 -26.8471,-1.79536 -0.5705,-0.57215 -1.2295,-57.35245 -1.4643,-126.17847 l -0.427,-125.13822 3.2953,-1.50145 c 2.4505,-1.11651 22.6262,-1.50146 78.6939,-1.50146 64.2681,0 75.6665,0.26781 77.2128,1.81416 1.4502,1.45014 1.9135,7.57473 2.3091,30.52382 0.2722,15.79032 0.9466,29.16234 1.4987,29.71561 1.6454,1.64896 23.9515,2.02526 26.8882,0.4536 2.5569,-1.36842 2.6319,-2.20851 2.6319,-29.46048 0,-34.90485 -1.0591,-32.99831 18.4184,-33.15402 25.1646,-0.20117 40.6261,0.30426 43.5722,1.42435 l 2.942,1.11856 v 123.57125 c 0,72.96262 -0.4745,124.81944 -1.1587,126.61896 -1.1069,2.91143 -1.8103,3.08841 -15.7296,3.95812 -15.6526,0.97801 -42.8281,-0.16922 -45.6789,-1.92837 -1.3787,-0.85075 -1.8709,-7.1697 -2.3654,-30.36584 -0.3434,-16.11034 -1.0921,-29.75807 -1.6637,-30.32829 -1.7669,-1.76237 -25.46,-1.25348 -27.3033,0.58642 -1.2135,1.21126 -1.7392,8.88532 -2.0713,30.23848 -0.3027,19.46219 -0.9018,28.98841 -1.873,29.78181 -1.7863,1.45926 -95.8677,2.57117 -130.8802,1.54682 z"
       id="path17303"
       transform="scale(0.26458333)" />
    <path
       style="fill:#000000;fill-opacity:1;stroke:none;stroke-width:1.2487;stroke-opacity:0.792157"
       d="m 1838.1105,680.04564 -20.5845,-0.75101 -0.8837,-4.99481 c -0.486,-2.74715 -0.9161,-59.65511 -0.9556,-126.46212 l -0.072,-121.46731 3.203,-1.2178 c 4.4736,-1.70086 119.8113,-1.63068 122.9981,0.0748 2.3632,1.26473 2.4153,3.98212 2.4153,125.88037 0,97.76199 -0.336,125.02204 -1.5608,126.60476 -1.3656,1.76456 -6.7186,2.08379 -42.7681,2.55054 -22.664,0.29345 -50.4702,0.19559 -61.7917,-0.21746 z"
       id="path17342"
       transform="scale(0.26458333)" />
    <path
       style="fill:#000000;fill-opacity:1;stroke:none;stroke-width:1.23297;stroke-opacity:0.792157"
       d="m 505.76931,678.50815 c -2.32448,-2.32449 -2.1384,-250.44075 0.18927,-252.37255 1.22375,-1.01563 35.49828,-1.30524 127.30397,-1.0757 l 125.62934,0.31411 v 30.8242 30.82421 l -13.56265,0.61648 c -7.45946,0.33907 -14.25619,1.06536 -15.10386,1.61398 -2.22152,1.4378 -2.15627,28.39782 0.0732,30.24812 0.88792,0.73692 7.68466,1.4984 15.10386,1.69218 l 13.48941,0.35234 v 30.82421 30.8242 l -13.48945,0.35235 c -7.4192,0.19378 -14.21594,0.95526 -15.10386,1.69217 -2.22947,1.8503 -2.29472,28.81032 -0.0732,30.24812 0.84767,0.54863 7.64441,1.27492 15.10386,1.61398 l 13.56265,0.61649 v 30.8242 30.82421 l -125.81861,0.31402 c -96.83772,0.24169 -126.16076,-0.0281 -127.30397,-1.17132 z"
       id="path17578"
       transform="scale(0.26458333)" />
  </g>
</svg>
